<svg width="73" height="71" viewBox="0 0 73 71" fill="none" xmlns="http://www.w3.org/2000/svg">
<g filter="url(#filter0_d_62_43)">
<path d="M36.5073 15.3476C27.2847 15.3476 19.8458 22.5592 19.8458 31.5C19.8458 40.4408 27.2847 47.6524 36.5073 47.6524C45.7298 47.6524 53.1687 40.4408 53.1687 31.5C53.1687 22.5592 45.7298 15.3476 36.5073 15.3476ZM36.5073 42.0012C30.5474 42.0012 25.6751 37.2918 25.6751 31.5C25.6751 25.7082 30.5329 20.9988 36.5073 20.9988C42.4816 20.9988 47.3394 25.7082 47.3394 31.5C47.3394 37.2918 42.4671 42.0012 36.5073 42.0012ZM57.7365 14.6869C57.7365 16.7815 55.9964 18.4544 53.8503 18.4544C51.6896 18.4544 49.964 16.7674 49.964 14.6869C49.964 12.6063 51.7041 10.9194 53.8503 10.9194C55.9964 10.9194 57.7365 12.6063 57.7365 14.6869ZM68.7716 18.5106C68.5251 13.4639 67.336 8.99347 63.5223 5.31033C59.7231 1.62719 55.1118 0.47445 49.906 0.22141C44.5407 -0.0738034 28.4593 -0.0738034 23.094 0.22141C17.9027 0.460393 13.2914 1.61313 9.47769 5.29627C5.66397 8.97941 4.4894 13.4498 4.22839 18.4965C3.92387 23.6979 3.92387 39.288 4.22839 44.4894C4.4749 49.5361 5.66397 54.0065 9.47769 57.6897C13.2914 61.3728 17.8882 62.5255 23.094 62.7786C28.4593 63.0738 44.5407 63.0738 49.906 62.7786C55.1118 62.5396 59.7231 61.3869 63.5223 57.6897C67.3215 54.0065 68.5106 49.5361 68.7716 44.4894C69.0761 39.288 69.0761 23.712 68.7716 18.5106ZM61.8402 50.0703C60.7091 52.8257 58.5195 54.9484 55.6629 56.059C51.3851 57.7037 41.2345 57.3242 36.5073 57.3242C31.78 57.3242 21.6149 57.6897 17.3516 56.059C14.5095 54.9625 12.3199 52.8397 11.1743 50.0703C9.47769 45.9233 9.86921 36.0828 9.86921 31.5C9.86921 26.9172 9.49219 17.0626 11.1743 12.9297C12.3054 10.1743 14.495 8.0516 17.3516 6.94103C21.6294 5.29627 31.78 5.67583 36.5073 5.67583C41.2345 5.67583 51.3996 5.31033 55.6629 6.94103C58.505 8.03754 60.6946 10.1603 61.8402 12.9297C63.5368 17.0767 63.1453 26.9172 63.1453 31.5C63.1453 36.0828 63.5368 45.9374 61.8402 50.0703Z" fill="white"/>
</g>
<defs>
<filter id="filter0_d_62_43" x="0" y="0" width="73" height="71" filterUnits="userSpaceOnUse" color-interpolation-filters="sRGB">
<feFlood flood-opacity="0" result="BackgroundImageFix"/>
<feColorMatrix in="SourceAlpha" type="matrix" values="0 0 0 0 0 0 0 0 0 0 0 0 0 0 0 0 0 0 127 0" result="hardAlpha"/>
<feOffset dy="4"/>
<feGaussianBlur stdDeviation="2"/>
<feComposite in2="hardAlpha" operator="out"/>
<feColorMatrix type="matrix" values="0 0 0 0 0 0 0 0 0 0 0 0 0 0 0 0 0 0 0.25 0"/>
<feBlend mode="normal" in2="BackgroundImageFix" result="effect1_dropShadow_62_43"/>
<feBlend mode="normal" in="SourceGraphic" in2="effect1_dropShadow_62_43" result="shape"/>
</filter>
</defs>
</svg>
